<svg width="126" height="143" viewBox="0 0 126 143" fill="none" xmlns="http://www.w3.org/2000/svg">
<path d="M44.559 106.548L2.53899 82.2943C0.966986 81.3883 0 79.7122 0 77.8992V29.3512C0 27.5372 0.966987 25.8622 2.53699 24.9542L44.557 0.68025C46.128 -0.22675 48.064 -0.22675 49.636 0.68025L91.665 24.9542C93.236 25.8622 94.203 27.5372 94.203 29.3512V77.8973C94.203 79.7123 93.236 81.3883 91.664 82.2943L49.634 106.548C48.849 107.002 47.973 107.228 47.096 107.228C46.22 107.228 45.343 107.002 44.559 106.548Z" transform="translate(0 142.971) scale(1.33333 -1.33333)" fill="#C94930"/>
</svg>
